<?xml version="1.0" encoding="utf-8"?>
<!-- Generator: Adobe Illustrator 16.0.0, SVG Export Plug-In . SVG Version: 6.00 Build 0)  -->
<!DOCTYPE svg PUBLIC "-//W3C//DTD SVG 1.1//EN" "http://www.w3.org/Graphics/SVG/1.1/DTD/svg11.dtd">
<svg version="1.1" id="图层_1" xmlns="http://www.w3.org/2000/svg" xmlns:xlink="http://www.w3.org/1999/xlink" x="0px" y="0px"
	 width="345.898px" height="200px" viewBox="0 0 345.898 200" enable-background="new 0 0 345.898 200" xml:space="preserve">
<path d="M194.424,99.499c-1.07-0.749-1.934-1.181-2.582-1.829c-18.771-18.746-37.508-37.524-56.284-56.266
	c-2.966-2.96-4.711-6.294-3.975-10.582c0.744-4.338,3.226-7.315,7.351-8.779c4.153-1.474,7.91-0.527,11.225,2.301
	c0.528,0.45,1.002,0.967,1.493,1.459c21.542,21.553,43.084,43.105,64.624,64.661c6.323,6.328,6.307,12.312-0.043,18.667
	c-21.706,21.717-43.408,43.438-65.119,65.148c-4.332,4.333-9.821,5.109-14.527,2.105c-5.711-3.645-6.914-11.399-2.552-16.578
	c0.646-0.768,1.377-1.465,2.087-2.175c18.584-18.603,37.173-37.204,55.764-55.8C192.482,101.232,193.133,100.682,194.424,99.499
	L194.424,99.499L194.424,99.499z"/>
</svg>
