<?xml version="1.0" encoding="utf-8"?>
<!-- Generator: Adobe Illustrator 16.0.0, SVG Export Plug-In . SVG Version: 6.00 Build 0)  -->
<!DOCTYPE svg PUBLIC "-//W3C//DTD SVG 1.1//EN" "http://www.w3.org/Graphics/SVG/1.1/DTD/svg11.dtd">
<svg version="1.1" id="图层_1" xmlns="http://www.w3.org/2000/svg" xmlns:xlink="http://www.w3.org/1999/xlink" x="0px" y="0px"
	 width="345.898px" height="200px" viewBox="0 0 345.898 200" enable-background="new 0 0 345.898 200" xml:space="preserve">
<path d="M157.984,100.046c1.07,0.749,1.934,1.181,2.582,1.829c18.771,18.746,37.508,37.524,56.284,56.266
	c2.966,2.96,4.711,6.295,3.975,10.582c-0.744,4.338-3.226,7.314-7.351,8.778c-4.153,1.474-7.91,0.527-11.225-2.301
	c-0.528-0.45-1.002-0.967-1.493-1.459c-21.542-21.553-43.084-43.104-64.624-64.661c-6.323-6.328-6.307-12.312,0.043-18.667
	c21.706-21.717,43.408-43.438,65.119-65.148c4.332-4.333,9.821-5.109,14.527-2.105c5.711,3.645,6.914,11.399,2.552,16.578
	c-0.646,0.768-1.377,1.465-2.087,2.175c-18.584,18.603-37.173,37.204-55.764,55.8C159.926,98.313,159.275,98.863,157.984,100.046
	L157.984,100.046L157.984,100.046z"/>
</svg>
